<?xml version="1.0" standalone="no"?>
<!DOCTYPE svg PUBLIC "-//W3C//DTD SVG 20010904//EN"
 "http://www.w3.org/TR/2001/REC-SVG-20010904/DTD/svg10.dtd">
<svg version="1.0" xmlns="http://www.w3.org/2000/svg"
 width="200.000000pt" height="200.000000pt" viewBox="0 0 200.000000 200.000000"
 preserveAspectRatio="xMidYMid meet">

<g transform="translate(0.000000,200.000000) scale(0.100000,-0.100000)"
fill="#000000" stroke="none">
<path d="M1000 1824 c14 -3 35 -7 46 -9 23 -5 98 -113 146 -210 87 -173 148
-411 152 -597 l3 -118 74 -48 c41 -27 94 -68 119 -91 l45 -43 -50 40 c-116 92
-337 208 -606 316 -92 37 -183 81 -203 98 -89 73 -91 144 -11 377 31 90 68
189 81 219 13 30 24 56 24 58 0 2 -11 4 -23 4 -22 0 -38 -36 -207 -462 -100
-255 -236 -595 -301 -757 -66 -162 -116 -298 -112 -302 11 -10 337 -69 383
-69 49 0 98 18 110 40 6 10 21 79 35 152 45 245 111 428 176 489 61 57 158 28
230 -68 68 -89 117 -204 175 -407 19 -66 37 -123 41 -127 10 -9 400 -35 408
-27 3 3 -10 49 -30 103 -19 54 -34 100 -31 102 2 2 21 -42 42 -97 21 -56 41
-103 46 -106 4 -3 14 -1 22 3 12 6 -45 156 -289 763 -265 660 -306 755 -327
761 -13 3 -61 9 -108 12 -47 3 -74 3 -60 1z m-373 -526 c-3 -8 -6 -5 -6 6 -1
11 2 17 5 13 3 -3 4 -12 1 -19z m-31 -154 c-39 -205 -50 -333 -50 -579 0 -127
-4 -205 -7 -175 -11 87 -10 358 1 471 11 113 31 232 57 346 27 117 26 76 -1
-63z"/>
</g>
</svg>
