<svg id="badc30fe-61cb-4d3c-9163-247818c26657" data-name="Capa 3" xmlns="http://www.w3.org/2000/svg" viewBox="0 0 402.87 199.68"><defs><style>.e9844e4f-2d28-41b6-9e7f-6b6c04865b65{fill:#fff;}</style></defs><title>logo final ojos grandes</title><g id="be2c8596-b0a2-436d-aeb6-a277088d62e0" data-name="Capa 5"><path class="e9844e4f-2d28-41b6-9e7f-6b6c04865b65" d="M347.11,260.53c.57.29,18.95,9.73,36.16,15,16.24,5,34.11,7.65,46,5.91l9.95-1.46S423.83,301,403.09,301.18C380.78,301.41,360.8,280.92,347.11,260.53Zm-190.48,0c-13.7,20.39-33.68,40.88-56,40.65C79.9,301,64.5,280,64.5,280l9.94,1.46c11.91,1.74,29.79-.92,46-5.91C137.68,270.26,156.06,260.82,156.63,260.53Zm124-92.1a162,162,0,0,0-28.67-2.33h-.11a162.63,162.63,0,0,0-49.95,7.47c-5.15-4-21.72-17.71-37.15-27.43s-33.14-15.43-33.14-15.43-1.14,14.29.57,38.86A248,248,0,0,0,140.71,217c-42.28,53.14-90.28,50.86-90.28,50.86s8.57,28,33.14,36H59c11.47,5.95,27.11,13.63,45.44,17.05,26.4,4.93,79.31,8.68,85.17,8.68,4.91,0,46.42.42,46.38.21-3-15.59-17.56-35.2-32.78-39.74-12.08-3.6-25.61-2.06-36-.2-16.77,3-33.9,9.23-36.59,9.11,0,0,14.92-9.16,28-29.26A216.92,216.92,0,0,1,188,234.1c16.38-15.78,28.38-17.39,38.71-20.13,6.19,20.1,18.93,84.32,25.12,104.42C258.06,298.29,270.8,234.07,277,214c10.33,2.74,22.32,4.35,38.71,20.13a217.43,217.43,0,0,1,29.42,35.61c13.09,20.1,28,29.26,28,29.26-2.69.12-19.82-6.11-36.59-9.11-10.41-1.86-23.94-3.4-36,.2-15.21,4.54-29.75,24.15-32.78,39.74,0,.21-.07.41-.11.59,4.91,0,41.59-.8,46.49-.8,5.87,0,58.77-3.75,85.17-8.68,18.34-3.42,34-11.1,45.44-17.05H420.16c24.57-8,33.14-36,33.14-36S405.3,270.14,363,217a248,248,0,0,0,8.57-47.43c1.71-24.57.57-38.86.57-38.86s-17.72,5.72-33.14,15.43-32,23.43-37.15,27.43A161.62,161.62,0,0,0,280.59,168.43Zm-60,156.67-49.43-2.37s12-13.87,28.39-10.53a42.68,42.68,0,0,1,8.45,2.61C217.63,319,220.61,325.1,220.61,325.1Zm62.51,0s3-6.13,12.59-10.29a42.58,42.58,0,0,1,8.46-2.61c16.39-3.34,28.38,10.53,28.38,10.53Zm-122-127.41c-5.82-11.6-5.48-28.18-5.48-28.18s10,2.4,23.11,16.29l-5.09,2.75a51.41,51.41,0,0,0-8.71,5.92Zm169-9.14L325,185.8c13.16-13.89,23.1-16.29,23.1-16.29s.34,16.58-5.47,28.18l-3.84-3.22A51,51,0,0,0,330.07,188.55Z" transform="translate(-50.43 -130.71)"/></g></svg>